<svg xmlns="http://www.w3.org/2000/svg" width="230.12" height="71.841" viewBox="0 0 230.12 71.841"><g id="Logo_El_camello" data-name="Logo El camello" transform="translate(-27.7 376)"><g id="Grupo_5" data-name="Grupo 5" transform="translate(100.88 -376)"><g id="Grupo_2" data-name="Grupo 2" transform="translate(0.12 0)"><path id="Trazado_5" data-name="Trazado 5" d="M75.094,136.684c-.69,3.681-1.265,7.363-1.841,11.044-.115,1.035-.46,1.5-1.611,1.38-2.071-.115-2.071,0-1.611-2.071,1.265-6.557,2.531-13,3.8-19.557a11.937,11.937,0,0,0,.345-1.38c2.531,5.637,4.947,10.929,7.363,16.566,2.531-5.522,4.947-10.929,7.478-16.566.69,3.8,1.265,7.133,1.841,10.469.69,3.8,1.265,7.708,2.071,11.5.115.805,0,.92-.805,1.035-2.416,0-2.416.115-2.876-2.416-.575-3.336-1.15-6.672-1.956-10.009-1.956,4.372-3.911,8.743-6.1,13.46-2.071-4.6-4.026-9.088-5.982-13.46Z" transform="translate(2.477 -126.1)" fill="#502d1d"></path><path id="Trazado_6" data-name="Trazado 6" d="M127.6,138.259A11.159,11.159,0,1,1,138.759,149.3,10.726,10.726,0,0,1,127.6,138.259Zm11.159,8.053c4.6,0,7.823-3.336,7.823-8.053a7.7,7.7,0,0,0-7.938-8.053c-4.487,0-7.708,3.451-7.823,8.053C130.936,142.976,134.157,146.312,138.759,146.312Z" transform="translate(6.902 -125.95)" fill="#502d1d"></path><path id="Trazado_8" data-name="Trazado 8" d="M60.2,126.3c3.451,7.708,6.787,15.07,10.124,22.548-.115.115-.115.115-.23.115-3.221.23-3.336.345-4.487-2.646-.69-1.956-1.726-2.646-3.681-2.416a28.3,28.3,0,0,1-5.407,0,1.493,1.493,0,0,0-1.611,1.035c-.345,1.035-.92,1.956-1.265,2.991-.345.92-.805,1.266-1.726,1.15a16.738,16.738,0,0,0-2.416,0C53.066,141.485,56.633,134.008,60.2,126.3Zm-.115,7.363c-1.15,2.531-2.186,4.832-3.221,7.133H63.19C62.155,138.379,61.119,136.079,60.084,133.663Z" transform="translate(1.001 -126.07)" fill="#502d1d"></path><path id="Trazado_9" data-name="Trazado 9" d="M2.6,138.2v-9.433c0-1.035.345-1.265,1.38-1.265,3.221.115,6.327,0,9.548,0,.805,0,1.265.23,1.035,1.035v1.035c.115.805-.23,1.035-1.035,1.035H7.087c-.805,0-1.15.115-1.035,1.035a17.3,17.3,0,0,1,0,3.451c-.115.92.345,1.035,1.035,1.035H13.3c.805,0,1.035.23,1.035,1.035,0,2.186,0,2.186-2.186,2.186H6.857c-.69,0-.92.23-.92.92V145.1c0,.69.23,1.035.92.92H13.3c.92,0,1.265.23,1.15,1.15v1.15c.115.575-.23.69-.805.69H3.405c-.69,0-.805-.23-.805-.92C2.715,144.756,2.6,141.42,2.6,138.2Z" transform="translate(-2.6 -125.889)" fill="#502d1d"></path><path id="Trazado_10" data-name="Trazado 10" d="M93.3,138.214V128.55c0-.805.23-1.15,1.035-1.15h9.779c.805,0,1.15.115,1.035,1.035v1.15c.115.805-.23.92-.92.92H97.672c-.69,0-1.035.115-1.035.92a17.3,17.3,0,0,1,0,3.451c0,.805.115,1.035,1.035,1.035,2.071-.115,4.142,0,6.212,0,.92,0,1.15.23,1.035,1.15V138.1c.115.805-.23,1.035-1.035,1.035H97.672c-.805,0-1.15.115-1.035,1.035a32.261,32.261,0,0,1,0,4.717c0,.805.23,1.035,1.035,1.035H104c.92,0,1.265.23,1.15,1.15v1.15c0,.575-.115.805-.69.805H94.22c-.805,0-.805-.345-.805-.92C93.3,144.656,93.3,141.435,93.3,138.214Z" transform="translate(4.752 -125.904)" fill="#502d1d"></path><path id="Trazado_11" data-name="Trazado 11" d="M50.312,144.011v3.336c0,.575-.46.69-.805.92A11.089,11.089,0,0,1,33.4,137.914c.345-8.513,7.593-12.539,15.185-10.124,1.15.345,1.956,1.035,1.726,2.416a13.842,13.842,0,0,0,0,2.186c-4.947-2.991-9.088-2.761-11.734.575a8.66,8.66,0,0,0,.23,10.929C41.684,147,45.711,147.118,50.312,144.011Z" transform="translate(-0.177 -125.95)" fill="#502d1d"></path><path id="Trazado_13" data-name="Trazado 13" d="M118.8,138.2v-9.433c0-.92.115-1.265,1.15-1.265,2.186.115,2.186,0,2.186,2.186v15.185c0,.805.23,1.15,1.15,1.15,1.381-.115,2.761,0,4.142,0,.92-.115,1.265.345,1.15,1.15v1.035c.115.69-.23.92-.92.805h-7.823c-.92,0-.92-.345-.92-1.035C118.8,144.641,118.8,141.42,118.8,138.2Z" transform="translate(5.578 -125.889)" fill="#502d1d"></path><path id="Trazado_14" data-name="Trazado 14" d="M16.6,138.2v-9.664c0-.92.23-1.15,1.15-1.035,2.186,0,2.186,0,2.186,2.186v15.07c0,.92.23,1.265,1.15,1.15,1.38-.115,2.761,0,4.141,0,.805,0,1.15.23,1.035,1.035v1.035c.115.805-.23,1.035-1.035,1.035-2.531,0-5.062-.115-7.478,0-.92,0-1.035-.345-1.035-1.15C16.6,144.53,16.6,141.424,16.6,138.2Z" transform="translate(-0.494 -125.893)" fill="#502d1d"></path><path id="Trazado_15" data-name="Trazado 15" d="M107.2,138.1v-9.548c0-.92.115-1.265,1.15-1.15,2.186,0,2.186,0,2.186,2.071v15.07c0,1.035.23,1.265,1.265,1.265,1.381-.115,2.761,0,4.142,0,.805,0,1.15.23,1.035,1.035V148c.115.69-.23.92-.92.92h-7.823c-.805,0-.92-.345-.92-1.035C107.315,144.659,107.2,141.438,107.2,138.1Z" transform="translate(5.974 -125.907)" fill="#502d1d"></path></g><g id="Grupo_3" data-name="Grupo 3" transform="translate(14.12 28.978)"><path id="Trazado_16" data-name="Trazado 16" d="M42.1,152.817c2.186-.23,2.186-.23,2.876,1.726.575,1.726,1.15,3.336,1.841,5.407.805-2.3,1.5-4.257,2.186-6.212.23-.46.23-1.15,1.035-1.035.805,0,.69.69.92,1.15q1.035,2.934,2.071,6.212c.805-2.3,1.5-4.372,2.3-6.442a1.965,1.965,0,0,1,2.3-.805c.345.23.115.46.115.69-1.15,3.221-2.3,6.327-3.451,9.548-.23.575-.575.575-1.15.69-.575,0-.805-.23-1.035-.805-.46-1.5-1.035-2.991-1.5-4.487-.115-.345-.115-.92-.69-1.15-.69,1.956-1.381,3.8-2.071,5.637-.23.575-.46.805-1.035.69-.46,0-.805.115-1.035-.575C44.516,159.6,43.365,156.268,42.1,152.817Z" transform="translate(-12.373 -152.472)" fill="#8d4a24"></path><path id="Trazado_17" data-name="Trazado 17" d="M107.1,156.741v5.867c0,.92-.46.92-1.15.92s-1.15-.115-1.035-1.035c.115-2.761,0-5.637,0-8.4,0-.46-.345-1.15.345-1.38a1.589,1.589,0,0,1,1.841.69c1.5,1.726,3.106,3.336,4.6,5.062l1.265,1.266v-5.867c0-.805,0-1.265,1.035-1.265s1.15.46,1.035,1.265v8.4c0,.345.23,1.035-.345,1.15a1.474,1.474,0,0,1-1.611-.46c-1.611-1.841-3.336-3.681-4.947-5.407C107.9,157.317,107.787,156.857,107.1,156.741Z" transform="translate(-2.938 -152.485)" fill="#8d4a24"></path><path id="Trazado_18" data-name="Trazado 18" d="M28.5,158.252c-.23-2.646,2.761-5.752,5.982-5.752a5.562,5.562,0,0,1,5.867,5.637,5.626,5.626,0,0,1-5.752,5.752C31.378,164,28.387,160.783,28.5,158.252Zm9.548,0a3.413,3.413,0,0,0-3.566-3.681,3.474,3.474,0,0,0-3.566,3.681,3.517,3.517,0,0,0,3.451,3.681A3.566,3.566,0,0,0,38.05,158.252Z" transform="translate(-14.42 -152.5)" fill="#8d4a24"></path><path id="Trazado_20" data-name="Trazado 20" d="M64.552,163.774a5.56,5.56,0,0,1-5.752-5.752,5.441,5.441,0,0,1,5.752-5.522,5.533,5.533,0,0,1,5.752,5.637C70.419,161.473,68,163.774,64.552,163.774Zm3.566-5.637a3.513,3.513,0,1,0-7.018,0,3.413,3.413,0,0,0,3.566,3.681A3.326,3.326,0,0,0,68.118,158.137Z" transform="translate(-9.861 -152.5)" fill="#8d4a24"></path><path id="Trazado_21" data-name="Trazado 21" d="M126.521,157.779h.23c2.416,0,2.646.23,1.841,2.531a4.8,4.8,0,0,1-4.141,3.451c-2.186.23-4.257-.23-5.522-2.186a5.741,5.741,0,0,1,6.557-8.743,4.446,4.446,0,0,1,2.186,1.381c.23.345.92.69.345,1.15-.46.345-1.035,1.15-1.841.23a3.272,3.272,0,0,0-4.6-.23,4.173,4.173,0,0,0-.69,4.947,3.486,3.486,0,0,0,4.372,1.38,3.171,3.171,0,0,0,1.035-.805c.23-.23.575-.575.345-1.035-.23-.345-.69-.115-.92-.115-.575-.115-1.265.46-1.611-.46s0-1.38,1.035-1.5Z" transform="translate(-0.964 -152.487)" fill="#8d4a24"></path><path id="Trazado_22" data-name="Trazado 22" d="M81.323,163.386c-1.841.575-2.991,0-3.681-1.5A16.4,16.4,0,0,0,75.8,159.13a19.065,19.065,0,0,0-.115,3.566c0,.805-.345.92-1.035.92-.575,0-1.15.115-1.15-.92.115-2.991,0-6.1,0-9.088,0-.46,0-.92.69-.805,1.265.115,2.416-.115,3.681.115a2.932,2.932,0,0,1,2.531,2.416,3.023,3.023,0,0,1-1.611,3.451c-.69.345-.575.575-.23,1.035A29.277,29.277,0,0,1,81.323,163.386Zm-5.752-7.363c.46.46-.575,1.611.805,1.611,1.035,0,1.841-.46,1.841-1.611a1.641,1.641,0,0,0-1.841-1.611C75.111,154.413,75.916,155.563,75.571,156.024Z" transform="translate(-7.65 -152.457)" fill="#8d4a24"></path><path id="Trazado_23" data-name="Trazado 23" d="M87.4,157.194a18.429,18.429,0,0,0,2.531-2.991,3.187,3.187,0,0,1,3.911-1.381c-1.15,1.265-2.3,2.646-3.451,3.8-.805.805-.92,1.265-.115,2.186,1.265,1.381,2.531,2.991,3.681,4.487-1.841.575-2.531.345-3.566-.92a28.026,28.026,0,0,0-3.106-3.451c0,1.266-.115,2.531,0,3.681.115,1.035-.575.92-1.15.92-.69,0-1.035-.115-1.035-.92v-9.088c0-.92.46-.805,1.035-.805s1.15,0,1.035.805A33.135,33.135,0,0,1,87.4,157.194Z" transform="translate(-5.905 -152.477)" fill="#8d4a24"></path><path id="Trazado_24" data-name="Trazado 24" d="M24.7,155.375c-2.416-1.265-4.026-1.15-5.292.46a3.813,3.813,0,0,0,.115,4.832c1.265,1.381,3.106,1.5,5.062.345.575,2.071.115,2.646-1.956,2.761A5.406,5.406,0,0,1,17,160.9a5.582,5.582,0,0,1,.46-6.212c1.38-1.956,3.451-2.416,5.752-2.071C24.934,152.959,24.934,153.074,24.7,155.375Z" transform="translate(-16.26 -152.499)" fill="#8d4a24"></path><path id="Trazado_25" data-name="Trazado 25" d="M97.5,157.992v-4.487c0-.92.46-.805,1.035-.805s1.15-.115,1.15.805v9.2c0,.92-.46.805-1.035.805s-1.15.115-1.15-.805C97.615,161.214,97.5,159.6,97.5,157.992Z" transform="translate(-4.04 -152.471)" fill="#8d4a24"></path></g><g id="Grupo_4" data-name="Grupo 4" transform="translate(47.12 42.007)"><path id="Trazado_3" data-name="Trazado 3" d="M86.21,179.819c1.611-.69,3.106-1.5,4.717-2.186.69-.345.69-.69.575-1.38-.23-2.876,1.726-5.522,4.257-5.752a3.291,3.291,0,0,1,3.451,4.6,5.538,5.538,0,0,1-3.566,3.221c-.345.115-.69.23-1.15.345a5.518,5.518,0,0,0,8.4-1.15c.115-.23.23-.345.345-.575.23-.575.69-1.035,1.381-.69s.46,1.035.23,1.611c-2.071,4.257-8.513,5.292-11.849,1.956-.575-.575-.805-.805-1.611-.345A26.416,26.416,0,0,1,86.9,181.43a1.262,1.262,0,0,0-.92,1.38,35.412,35.412,0,0,1-.69,7.018,7.01,7.01,0,0,1-2.876,4.487,4.084,4.084,0,0,1-6.327-3.451c-.115-3.336,1.611-5.752,4.026-7.708a21.1,21.1,0,0,1,3.451-2.071c.345-.115.69-.345.575-.805-.115-.575-.46-.345-.805-.345-.23,0-.575,0-.69-.115-1.15-1.381-1.956-.345-2.876.23a3.708,3.708,0,0,1-4.257-.575c-.575-.575-.805-.69-1.5,0a7.122,7.122,0,0,1-8.283,1.381,7.273,7.273,0,0,1-4.026-7.363,7.99,7.99,0,0,1,5.637-6.1c2.646-.69,4.832.23,6.787,1.956.575.46.92,1.035.46,1.726-.575.69-1.15.115-1.611-.345a5.138,5.138,0,0,0-6.557-.92,5.492,5.492,0,0,0-2.876,5.637,5.631,5.631,0,0,0,4.717,4.487,5.694,5.694,0,0,0,5.522-2.876,3.4,3.4,0,0,0,.23-1.5,4.733,4.733,0,0,1,7.708-3.336,2.206,2.206,0,0,1,1.035,2.071,28.031,28.031,0,0,0,.115,3.106c0,.46.115.92.69.92.69,0,.575-.575.575-1.035.115-2.416-.115-4.832.23-7.248a6.635,6.635,0,0,1,1.611-3.8,2.992,2.992,0,0,1,5.062.69,6.422,6.422,0,0,1,.46,3.566,11.4,11.4,0,0,1-4.947,8.513C86.44,179.129,86.095,179.129,86.21,179.819Zm-1.956,4.717c-.115-.46.23-1.15-.115-1.381-.46-.345-.92.345-1.381.575a12.555,12.555,0,0,0-3.106,2.416,6.683,6.683,0,0,0-1.841,4.832,2.489,2.489,0,0,0,1.726,2.3,2.359,2.359,0,0,0,2.531-.805,5.485,5.485,0,0,0,1.38-2.531A18.137,18.137,0,0,0,84.254,184.536Zm1.841-7.363a8.805,8.805,0,0,0,3.451-5.062,8.421,8.421,0,0,0,.115-4.142,1.22,1.22,0,0,0-1.035-1.035,1.32,1.32,0,0,0-1.38.575,7.352,7.352,0,0,0-.92,2.186C85.98,172,86.21,174.412,86.095,177.173Zm-5.177-2.646c0-1.15-.575-1.726-1.956-1.726a3.119,3.119,0,0,0-3.106,3.221,2.593,2.593,0,0,0,2.416,2.761C79.653,178.784,80.8,176.943,80.918,174.527Zm12.309,1.265c.115.46-.115.92.575,1.035a4.35,4.35,0,0,0,3.8-2.531,1.558,1.558,0,0,0-.46-1.611,1.391,1.391,0,0,0-1.726-.115A3.713,3.713,0,0,0,93.227,175.793Z" transform="translate(-42.895 -165.14)" fill="#8d4a24"></path><path id="Trazado_19" data-name="Trazado 19" d="M55.761,180.555c-1.265-.115-2.531.575-3.451-.805-.345-.46-.575,0-.805.23a4.539,4.539,0,0,1-2.991.805,3.257,3.257,0,0,1-2.991-2.186,2.864,2.864,0,0,1,1.265-3.451c.805-.575.92-.92.46-1.726a2.542,2.542,0,0,1,1.035-3.566,3.169,3.169,0,0,1,4.141.805,2.521,2.521,0,0,1-.69,3.566c-1.265.92.115,1.265.345,1.726.46.92.805.23,1.15-.115.345-.46.69-.575,1.035-.115.23.345,1.265.575.575,1.15-1.265,1.15-.46,1.841.23,2.646A4,4,0,0,0,55.761,180.555Zm-6.672-1.611c.575-.23,1.5-.345,1.38-1.035-.23-.805-.805-1.726-1.611-1.841-.575-.115-1.15.69-1.15,1.5C47.594,178.37,48.169,178.83,49.089,178.945Zm1.726-6.9c-.115-.46-.345-1.035-.92-.92-.575,0-.92.345-.805.92,0,.575.345,1.265.805,1.265S50.585,172.733,50.815,172.042Z" transform="translate(-45.348 -164.495)" fill="#8d4a24"></path><path id="Trazado_26" data-name="Trazado 26" d="M95.928,171.151a.868.868,0,0,1-.805-.46.556.556,0,0,1,0-.805,7.43,7.43,0,0,1,2.531-2.071c.345-.115.575-.23.805.115a1.045,1.045,0,0,1,.345.805A8.494,8.494,0,0,1,95.928,171.151Z" transform="translate(-37.888 -164.754)" fill="#8d4a24"></path></g></g><g id="Grupo_6" data-name="Grupo 6" transform="translate(27.7 -376)"><path id="Trazado_1" data-name="Trazado 1" d="M75.714,34.089c.138.131.275.2.413.327a6.164,6.164,0,0,1,3.236,5.5c0,2.225-.069,4.385-.069,6.61a3.838,3.838,0,0,0,2.547,3.8,4.132,4.132,0,0,0,5.783-3.665v-12.5a11.16,11.16,0,0,1,.275-3.01,8.391,8.391,0,0,1,7.5-6.152c.551-.065.757.065.688.654-.069.524.138,1.047-.069,1.505s-.895.2-1.377.327a5.736,5.736,0,0,0-4.612,5.563V46.523a6.617,6.617,0,0,1-13.218.2c0-2.356.069-4.647,0-7a3.989,3.989,0,0,0-3.924-3.927,4.255,4.255,0,0,0-4.406,3.338,3.831,3.831,0,0,0-.069.916v6.741a6.371,6.371,0,0,1-4.819,5.89,6.755,6.755,0,0,1-7.366-2.749,5.873,5.873,0,0,1-.964-3.207A4.025,4.025,0,0,0,51,42.662a4.079,4.079,0,0,0-4.062,4.189V80.424c0,.327-.069.458-.482.458-1.928.131-1.928.131-1.928-1.767V58.631c-.275.065-.275.262-.413.458-1.377,2.618-2.754,5.17-4.062,7.788a2.219,2.219,0,0,0-.275,1.113V80.162c0,.589-.138.72-.757.72-1.721,0-1.721,0-1.721-1.636V67.662a3.721,3.721,0,0,1,.344-1.505c2.134-4.058,4.268-8.181,6.471-12.238a3.16,3.16,0,0,0,.413-1.571c0-1.963-.069-3.927,0-5.825a6.348,6.348,0,0,1,5.783-6.086,6.582,6.582,0,0,1,7.229,4.778,12.857,12.857,0,0,1,.207,1.7,4.185,4.185,0,0,0,8.261.393,29.4,29.4,0,0,0,.069-4.254V39.783a6.2,6.2,0,0,1,3.029-5.236,3.809,3.809,0,0,0,.551-.393C71.79,34.089,73.787,34.089,75.714,34.089Z" transform="translate(-37.3 -9.09)" fill="#62351b"></path><path id="Trazado_2" data-name="Trazado 2" d="M76.353,63.227a13.113,13.113,0,0,1-6.54,3.442C62.86,67.978,55.907,62.47,55.7,55.448c0-.551.138-.688.62-.62.551.069,1.239-.138,1.652.069.413.275.207.964.275,1.515a9.561,9.561,0,0,0,19-1.583v-6.54c0-.482.138-.688.62-.688,1.79,0,1.79,0,1.79,1.721V89.87c0,.757-.207.964-.964.964-1.446-.069-1.446,0-1.446-1.515V67.427c-.344,0-.275.275-.413.413-1.377,2.685-2.685,5.439-4.062,8.123a3.133,3.133,0,0,0-.344,1.377V90.076c0,.551-.138.757-.757.757-1.721,0-1.721,0-1.721-1.721V76.927a4.084,4.084,0,0,1,.344-1.583c2-3.993,3.993-8.055,5.989-12.048,0-.069.069-.138,0-.207C76.422,63.09,76.353,63.159,76.353,63.227Z" transform="translate(-43.033 -19.044)" fill="#8a461f"></path><path id="Trazado_4" data-name="Trazado 4" d="M69.715,23.624C69.1,24.863,68.545,25.9,68.063,27L65.172,32.78c-.826,1.652-.62,2.478.895,3.649a11.986,11.986,0,0,1,4.681,7.5,2.981,2.981,0,0,1,.069.344c.207,2.409.62,1.859-1.859,1.928-.344,0-.482-.138-.482-.482a10.027,10.027,0,0,0-4.268-7.642,4.648,4.648,0,0,1-1.377-6.127c1.859-3.786,3.786-7.5,5.645-11.29.275-.551.62-.964,1.239-.964s.964.413,1.239.964c.895,1.859,1.859,3.718,2.754,5.576a.978.978,0,0,0,1.033.688c1.1-.069,2.272,0,3.373,0,.413,0,.551.069.551.551.069,1.859.069,1.859-1.79,1.859h-3.3a1.577,1.577,0,0,1-1.583-.964C71.368,26.86,70.541,25.345,69.715,23.624Z" transform="translate(-45.07 -8.184)" fill="#8a461f"></path><path id="Trazado_7" data-name="Trazado 7" d="M70.576,1.9a5.437,5.437,0,0,1,5.507,5.507A5.542,5.542,0,1,1,65,7.407,5.629,5.629,0,0,1,70.576,1.9Zm0,8.605a3.178,3.178,0,0,0,3.167-3.029,3.133,3.133,0,1,0-6.265-.069A3.085,3.085,0,0,0,70.576,10.505Z" transform="translate(-45.931 -1.9)" fill="#8a461f"></path><path id="Trazado_12" data-name="Trazado 12" d="M89.289,34.9h-7.71c-.138,0-.344.069-.413,0-.551-.62-.138-1.308-.275-2-.069-.482.275-.413.62-.413,2.2,0,4.406-.069,6.54,0A1.529,1.529,0,0,0,89.7,31.459c.757-1.652,1.652-3.3,2.409-4.957.207-.482.413-.551.895-.275,1.583.826,1.583.757.826,2.341-.826,1.721-1.721,3.373-2.478,5.094A1.767,1.767,0,0,1,89.289,34.9Z" transform="translate(-50.875 -10.163)" fill="#db5b2c"></path><path id="Trazado_27" data-name="Trazado 27" d="M85.7,70.256c0-.069.069-.138.138-.069v.207C85.769,70.325,85.7,70.325,85.7,70.256Z" transform="translate(-52.38 -24.999)" fill="#fefefe"></path></g></g></svg>